<svg id="_MAIN_Logo" data-name="[MAIN] Logo" xmlns="http://www.w3.org/2000/svg" width="1280" height="321.456" viewBox="0 0 1280 321.456">
  <rect id="Rectangle_22" data-name="Rectangle 22" width="1280" height="321.455" transform="translate(0 0)" fill="#d62420"/>
  <path id="Path_413" data-name="Path 413" d="M224.378,887.317l-.9,119.87h-1.8l-2.247-119.87L216.3,801.565H178.584l-3.593,85.752-1.8,119.87H171.4l-1.8-119.87-2.693-85.752H65.3V838.83H77.425v284.191h39.958V838.83h10.891l13.5,284.191h42.2l4.041-92.486L191.154,917.4h1.8l2.693,113.138,4.487,92.486h41.755l15.263-321.456H227.522Zm38.152,235.7h59.263v-37.265h-20.2V967.68h17.059V930.417H301.592V838.83h20.2V801.565H262.53ZM377.017,873.848l4.039,80.363h-1.8l-5.838-79.017-5.387-73.629H328.976v321.456H360.4v-72.734l-4.938-91.139h1.794l8.082,87.548,6.734,76.324h36.366V801.565H377.017Zm146.943-8.979-1.8,92.935h-1.794l-1.8-92.935-2.693-63.3H415.169V838.83h12.124v284.191h39.958V838.83h10.864l18.459,194.4v89.793h39.958v-89.793L558.98,801.565H527.1Zm134.535-63.3H596.539c-5.387,0-9.428,4.49-9.428,10.327v300.8c0,5.835,4.041,10.327,9.428,10.327h61.956c5.389,0,9.43-4.492,9.43-10.327v-300.8C667.925,806.055,663.884,801.565,658.495,801.565Zm-27.386,289.578c0,2.7-1.348,3.593-3.59,3.593s-3.593-.9-3.593-3.593V832.993c0-2.693,1.348-3.142,3.593-3.142s3.59.9,3.59,3.59Zm95.177-217.295,4.041,80.363h-1.8l-5.838-79.017-5.387-73.629H678.245v321.456h31.43v-72.734l-4.941-91.139h1.8l8.082,87.548,6.732,76.324h36.368V801.565H726.286Zm42.193,249.173h59.267v-37.265H807.541V967.68H824.6V930.417H807.541V838.83h20.206V801.565H768.479ZM931.448,801.565H859.613v321.456h37.714v-82.61h34.121c5.389,0,9.428-4.49,9.428-10.325V811.892C940.875,806.055,936.836,801.565,931.448,801.565ZM904.51,1008.087c0,1.8-.9,3.142-2.693,3.142h-4.49V830.748h4.49c1.794,0,2.693,1.345,2.693,3.142Zm46.232,114.935H989.8V801.565H950.742Zm89.34-321.456h-39.507v321.456h55.67v-36.365h-16.162Zm94.726,0h-61.956c-5.387,0-9.428,4.49-9.428,10.327v300.8c0,5.835,4.041,10.327,9.428,10.327h61.956c5.389,0,9.43-4.492,9.43-10.327v-300.8C1144.238,806.055,1140.2,801.565,1134.808,801.565Zm-27.386,289.578c0,2.7-1.345,3.593-3.59,3.593s-3.593-.9-3.593-3.593V832.993c0-2.693,1.348-3.142,3.593-3.142s3.59.9,3.59,3.59Zm43.1-252.313h12.121v284.191H1202.6V838.83h12.572V801.565h-64.651Zm150.847,89.791V811.892c0-5.838-4.041-10.327-9.43-10.327h-61.507c-5.387,0-9.428,4.49-9.428,10.327V957.8c0,4.938,1.794,8.531,5.389,10.325l33.67,17.062c3.593,1.8,4.49,4.041,4.49,7.632v100.118c0,2.693-.9,3.593-3.142,3.593-2.693,0-3.59-.9-3.59-3.593V996.863l-36.817-.9v116.729c0,5.835,4.041,10.327,9.428,10.327h61.507c5.389,0,9.43-4.492,9.43-10.327V967.232q0-9.429-8.082-13.469L1262.3,938.5c-3.142-1.345-4.487-3.142-4.487-7.632V831.2c0-2.245.9-3.142,3.142-3.142,2.693,0,3.59.9,3.59,3.142v97.425Z" transform="translate(-43.335 -801.565)" fill="#ffd800"/>
</svg>
